<?xml version="1.0" encoding="UTF-8"?>
<svg width="1024" height="1024" viewBox="0 0 100 100" xmlns="http://www.w3.org/2000/svg">
  <rect width="100" height="100" fill="white"/>
  <g fill="#2563eb" stroke="none">
    <rect x="25" y="20" width="8" height="60" rx="2"/>
    <rect x="25" y="20" width="35" height="8" rx="2"/>
    <rect x="25" y="46" width="28" height="8" rx="2"/>
    <rect x="25" y="72" width="35" height="8" rx="2"/>
    <g transform="translate(38, 35)">
      <rect x="0" y="8" width="18" height="8" rx="3" fill="#2563eb"/>
      <circle cx="3" cy="18" r="2" fill="#2563eb"/>
      <circle cx="15" cy="18" r="2" fill="#2563eb"/>
      <rect x="4" y="4" width="10" height="6" rx="2" fill="#2563eb"/>
    </g>
    <g fill="#2563eb">
      <circle cx="45" cy="35" r="2"/>
      <rect x="43" y="37" width="4" height="8" rx="1"/>
      <circle cx="52" cy="55" r="2"/>
      <rect x="50" y="57" width="4" height="8" rx="1"/>
    </g>
    <g fill="#2563eb">
      <circle cx="42" cy="42" r="1.5"/>
      <circle cx="48" cy="52" r="1.5"/>
      <circle cx="55" cy="45" r="1.5"/>
      <line x1="42" y1="42" x2="48" y2="52" stroke="#2563eb" stroke-width="1" opacity="0.6"/>
      <line x1="48" y1="52" x2="55" y2="45" stroke="#2563eb" stroke-width="1" opacity="0.6"/>
    </g>
  </g>
</svg>